<svg id="noun-approve-6408330" xmlns="http://www.w3.org/2000/svg" width="66.634" height="62.192" viewBox="0 0 66.634 62.192">
  <path id="Path_1241" data-name="Path 1241" d="M19,18.437a14.437,14.437,0,1,1,28.875,0q0,.171,0,.341,0,.107,0,.214a5.774,5.774,0,0,1-.076.933A14.438,14.438,0,0,1,19,18.437Zm20.646-1.986a2.221,2.221,0,0,0-3.534-2.692l-4.226,5.546-1.179-1.428a2.221,2.221,0,1,0-3.426,2.828l2.961,3.588a2.221,2.221,0,0,0,3.48-.068Z" transform="translate(-0.12 -4)" fill="#525ceb" fill-rule="evenodd"/>
  <path id="Path_1242" data-name="Path 1242" d="M17.548,17.442A17.8,17.8,0,0,1,18.108,13H15.327A13.327,13.327,0,0,0,2,26.327V51.87A13.327,13.327,0,0,0,15.327,65.2h39.98A13.327,13.327,0,0,0,68.634,51.87V26.327A13.327,13.327,0,0,0,55.307,13H52.526a17.771,17.771,0,1,1-34.978,4.442ZM15.327,49.649a2.221,2.221,0,0,0,0,4.442H30.875a2.221,2.221,0,0,0,0-4.442Z" transform="translate(-2 -3.005)" fill="#525ceb" fill-rule="evenodd"/>
</svg>
