<svg id="noun-delivery-1609471" xmlns="http://www.w3.org/2000/svg" width="75.701" height="62.192" viewBox="0 0 75.701 62.192">
  <g id="Group_75" data-name="Group 75" transform="translate(0 0)">
    <path id="Path_1237" data-name="Path 1237" d="M76.33,43.673H68.916l-3.46-8.32A2.535,2.535,0,0,0,63.15,33.87H52.441V26.457a2.427,2.427,0,0,0-2.471-2.471H37.532A17.561,17.561,0,0,0,3.1,28.845,17.389,17.389,0,0,0,6.313,38.895V63.277a2.427,2.427,0,0,0,2.471,2.471h3.624a9.767,9.767,0,0,0,19.111,0H53.595a9.767,9.767,0,0,0,19.111,0H76.33A2.427,2.427,0,0,0,78.8,63.277V46.144A2.427,2.427,0,0,0,76.33,43.673ZM20.645,16.242a12.6,12.6,0,1,1-12.6,12.6A12.656,12.656,0,0,1,20.645,16.242Zm1.318,52.307a4.86,4.86,0,1,1,4.86-4.86A4.817,4.817,0,0,1,21.963,68.549Zm41.186,0a4.86,4.86,0,1,1,4.86-4.86A4.817,4.817,0,0,1,63.15,68.549Zm10.708-7.743H72.54a9.832,9.832,0,0,0-18.781,0H52.441V38.813H61.5l3.46,8.32a2.535,2.535,0,0,0,2.306,1.483h6.59Z" transform="translate(-3.1 -11.3)" fill="#525ceb"/>
    <path id="Path_1238" data-name="Path 1238" d="M23.871,32.921h5.766a2.471,2.471,0,1,0,0-4.942H26.342V22.871a2.471,2.471,0,1,0-4.942,0v7.578A2.427,2.427,0,0,0,23.871,32.921Z" transform="translate(-6.326 -12.904)" fill="#525ceb"/>
  </g>
</svg>
