<svg id="noun-offer-2340065" xmlns="http://www.w3.org/2000/svg" width="62.288" height="62.28" viewBox="0 0 62.288 62.28">
  <path id="Path_1236" data-name="Path 1236" d="M62.435,27.109l-2.3-2.692a4.673,4.673,0,0,1-1.116-2.692l-.263-3.546a10.151,10.151,0,0,0-9.39-9.39l-3.546-.263A4.5,4.5,0,0,1,43.131,7.41l-2.692-2.3a10.251,10.251,0,0,0-13.329,0l-2.692,2.3a4.673,4.673,0,0,1-2.692,1.116l-3.546.263a10.151,10.151,0,0,0-9.39,9.39l-.263,3.546A4.5,4.5,0,0,1,7.41,24.417l-2.3,2.692a10.251,10.251,0,0,0,0,13.329l2.3,2.692a4.673,4.673,0,0,1,1.116,2.692l.263,3.546a10.151,10.151,0,0,0,9.39,9.39l3.546.263a4.5,4.5,0,0,1,2.692,1.116l2.692,2.3a10.061,10.061,0,0,0,13.264,0l2.692-2.3a4.673,4.673,0,0,1,2.692-1.116l3.546-.263a10.151,10.151,0,0,0,9.39-9.39l.263-3.546a4.5,4.5,0,0,1,1.116-2.692l2.3-2.692A10.025,10.025,0,0,0,62.435,27.109ZM24.811,20.083a4.662,4.662,0,1,1-4.662,4.662A4.6,4.6,0,0,1,24.811,20.083ZM26.058,45.3a2.763,2.763,0,1,1-3.94-3.874L41.358,22.184a2.739,2.739,0,0,1,3.874,3.874Zm16.612,2.1a4.662,4.662,0,1,1,4.662-4.662A4.68,4.68,0,0,1,42.671,47.4Z" transform="translate(-2.65 -2.65)" fill="#525ceb"/>
</svg>
