<svg id="noun-safety-box-3202560" xmlns="http://www.w3.org/2000/svg" width="71.355" height="62.192" viewBox="0 0 71.355 62.192">
  <g id="Group_76" data-name="Group 76" transform="translate(0 0)">
    <path id="Path_1239" data-name="Path 1239" d="M63.715,8.5H12.64A10.146,10.146,0,0,0,2.5,18.64V55.594a10.146,10.146,0,0,0,10.14,10.14h.3l.826,3.155a2.412,2.412,0,0,0,2.328,1.8h7.887a2.412,2.412,0,0,0,2.328-1.8l.826-3.155H49.069l.826,3.155a2.412,2.412,0,0,0,2.328,1.8H60.11a2.412,2.412,0,0,0,2.328-1.8l.826-3.155h.451a10.146,10.146,0,0,0,10.14-10.14V18.715A10.21,10.21,0,0,0,63.715,8.5ZM68.6,55.669a4.872,4.872,0,0,1-4.882,4.882H12.64a4.872,4.872,0,0,1-4.882-4.882V18.715a4.872,4.872,0,0,1,4.882-4.882H63.715A4.872,4.872,0,0,1,68.6,18.715Z" transform="translate(-2.5 -8.5)" fill="#525ceb"/>
    <path id="Path_1240" data-name="Path 1240" d="M65.073,21.8H17.9a2.1,2.1,0,0,0-2.1,2.1v4.732l2.479.676a1.447,1.447,0,0,1,1.127,1.427v4.807a1.447,1.447,0,0,1-1.127,1.427l-2.479.676v5.633l2.479.676a1.447,1.447,0,0,1,1.127,1.427v4.807a1.447,1.447,0,0,1-1.127,1.427l-2.479.676v4.732a2.1,2.1,0,0,0,2.1,2.1H65.148a2.1,2.1,0,0,0,2.1-2.1V52.295l-2.479-.676a1.447,1.447,0,0,1-1.127-1.427V45.385a1.447,1.447,0,0,1,1.127-1.427l2.479-.676V37.648l-2.479-.676a1.447,1.447,0,0,1-1.127-1.427V30.738a1.447,1.447,0,0,1,1.127-1.427l2.479-.676V23.9A2.217,2.217,0,0,0,65.073,21.8ZM43.366,49.516v1.953a.753.753,0,0,1-.751.751H40.436a.753.753,0,0,1-.751-.751V49.591a4.793,4.793,0,0,1-4.206-4.281,1.086,1.086,0,0,1,.15-.526.853.853,0,0,1,.6-.225h2.178a.731.731,0,0,1,.751.6,1.2,1.2,0,0,0,1.127.9h1.953a1.954,1.954,0,0,0,1.953-1.652,1.661,1.661,0,0,0-.451-1.427,1.881,1.881,0,0,0-1.352-.6H40.962a5.646,5.646,0,0,1-5.708-4.957,5.531,5.531,0,0,1,4.507-6.009V29.461a.753.753,0,0,1,.751-.751H42.69a.753.753,0,0,1,.751.751v1.878a4.793,4.793,0,0,1,4.206,4.281,1,1,0,0,1-.225.6.853.853,0,0,1-.6.225H44.642a.731.731,0,0,1-.751-.6,1.2,1.2,0,0,0-1.127-.9H40.812A1.954,1.954,0,0,0,38.859,36.6a1.661,1.661,0,0,0,.451,1.427,1.881,1.881,0,0,0,1.352.6h1.652a5.394,5.394,0,0,1,4.056,1.8A5.629,5.629,0,0,1,47.8,44.709,5.419,5.419,0,0,1,43.366,49.516Z" transform="translate(-5.81 -11.81)" fill="#525ceb"/>
  </g>
</svg>
