<svg xmlns="http://www.w3.org/2000/svg" width="46.451" height="46.451" viewBox="0 0 46.451 46.451">
  <g id="noun-car-charger-1384833" transform="translate(31.52) rotate(45)">
    <path id="Path_15" data-name="Path 15" d="M16.423,35.192,14.077,42.23H11.731v2.346H9.385V42.23H7.038L4.692,35.192V23.461L0,11.731V0H21.115V11.731L16.423,23.461Z" fill="#2d2d2d"/>
    <path id="Path_18" data-name="Path 18" d="M3.519,0a4.7,4.7,0,0,0,0,9.091V6.525a2.312,2.312,0,0,1-1.173-1.98A2.311,2.311,0,0,1,3.519,2.566Z" transform="translate(0 24.781)" fill="#2d2d2d"/>
    <path id="Path_19" data-name="Path 19" d="M0,0V2.566A2.311,2.311,0,0,1,1.173,4.546,2.312,2.312,0,0,1,0,6.525V9.091A4.7,4.7,0,0,0,3.519,4.546,4.7,4.7,0,0,0,0,0Z" transform="translate(17.596 24.781)" fill="#2d2d2d"/>
  </g>
</svg>
