<svg id="noun-charger-cable-916928" xmlns="http://www.w3.org/2000/svg" width="30.822" height="42.03" viewBox="0 0 30.822 42.03">
  <g id="Group_21" data-name="Group 21" transform="translate(0 0)">
    <g id="Group_20" data-name="Group 20">
      <g id="Group_19" data-name="Group 19">
        <path id="Path_26" data-name="Path 26" d="M9.808,28.024v2.8H5.6v-2.8ZM3.5,2.105a.7.7,0,0,1,.7-.7h7.005a.7.7,0,0,1,.7.7v6.3H3.5Zm6.3,15.411a.691.691,0,0,1,.267.054.7.7,0,0,1,.228,1.143l-4.2,4.2a.7.7,0,0,1-.991-.991l3.007-3.007H5.6a.711.711,0,0,1-.268-.054.7.7,0,0,1-.227-1.143l4.2-4.2a.7.7,0,1,1,.991.991L7.3,17.516ZM30.122,0h-2.8a.7.7,0,0,0-.7.7V33.628a4.208,4.208,0,0,1-4.2,4.2H14.011a4.2,4.2,0,0,1-4.2-4.194v-1.41a1.4,1.4,0,0,0,1.4-1.4v-2.8h2.8a1.4,1.4,0,0,0,1.4-1.4V9.811a1.4,1.4,0,0,0-1.4-1.4h-.7v-6.3a2.1,2.1,0,0,0-2.1-2.1H4.2a2.1,2.1,0,0,0-2.1,2.1v6.3H1.4A1.4,1.4,0,0,0,0,9.811V26.623a1.4,1.4,0,0,0,1.4,1.4H4.2v2.8a1.4,1.4,0,0,0,1.4,1.4v1.41a8.411,8.411,0,0,0,8.406,8.4h8.406a8.416,8.416,0,0,0,8.406-8.406V.7a.7.7,0,0,0-.7-.7Z" transform="translate(-0.001 -0.004)" fill="#2d2d2d" fill-rule="evenodd"/>
      </g>
    </g>
  </g>
</svg>
