<svg id="noun-airpod-4400112" xmlns="http://www.w3.org/2000/svg" width="43.522" height="43.515" viewBox="0 0 43.522 43.515">
  <g id="Group_17" data-name="Group 17">
    <path id="Path_21" data-name="Path 21" d="M363.893,353.955l-.164,0a6.932,6.932,0,0,1-.762.563,7.855,7.855,0,0,1-.763.427v8.088a2.9,2.9,0,0,0,2.892,2.892h1.117a2.9,2.9,0,0,0,2.892-2.892v-.191h-3.118a.685.685,0,1,1,0-1.371H369.1V352.4l-.586.331A9.412,9.412,0,0,1,363.893,353.955Z" transform="translate(-331.345 -322.408)" fill="#2d2d2d"/>
    <path id="Path_22" data-name="Path 22" d="M173.666,96.355l.539-.846a6.378,6.378,0,0,0-1.956-8.8h0l-.029-.017c.081.263.152.529.211.8h0a9.427,9.427,0,0,1-6.128,10.9l.018.614a6.3,6.3,0,0,0,1.953.31,6.433,6.433,0,0,0,1.4-.154A6.336,6.336,0,0,0,173.666,96.355Z" transform="translate(-152.225 -79.457)" fill="#2d2d2d"/>
    <path id="Path_23" data-name="Path 23" d="M16.826,14.625A17.722,17.722,0,0,0,16,19.77,8.057,8.057,0,0,0,17.648,5.759L14.9,3.793A8.056,8.056,0,0,0,3.293,6.216l-.184.308A8.056,8.056,0,0,0,6.06,17.663l.279.158a15.417,15.417,0,0,0-.47-3.1L5.295,12.5a.685.685,0,0,1,1.327-.343L7.2,14.381a16.788,16.788,0,0,1,.534,4.2v10.67h3.118a.685.685,0,1,1,0,1.371H7.73v.191a2.9,2.9,0,0,0,2.892,2.892h1.117a2.9,2.9,0,0,0,2.892-2.878s0-.01,0-.014V19.968a19.093,19.093,0,0,1,.888-5.756l.3-.936a.685.685,0,0,1,.86-.447h0a.685.685,0,0,1,.447.86Zm-4.9,1.435a.685.685,0,0,1-1.371,0v-4.3a.685.685,0,1,1,1.371,0Z" transform="translate(-1.967 -2.288)" fill="#2d2d2d"/>
    <path id="Path_24" data-name="Path 24" d="M254.566,227.16a5.421,5.421,0,0,0-.723-4.114l-1.527-2.4a5.457,5.457,0,0,0-7.534-1.674,6.385,6.385,0,0,0-1.956,8.8l.539.846a6.336,6.336,0,0,0,4,2.8,6.432,6.432,0,0,0,1.4.154,6.335,6.335,0,0,0,3.412-1A5.421,5.421,0,0,0,254.566,227.16Zm-5.687,1.479a.685.685,0,0,1-1.128-.778,1.5,1.5,0,0,0,.031-1.663l-1.069-1.68a1.512,1.512,0,0,0-1.321-.7.685.685,0,1,1-.045-1.37,2.89,2.89,0,0,1,2.523,1.33l1.069,1.68A2.871,2.871,0,0,1,248.879,228.639Z" transform="translate(-221.282 -199.629)" fill="#2d2d2d"/>
    <path id="Path_25" data-name="Path 25" d="M324.138,147.735l-.184-.308A8.056,8.056,0,0,0,312.346,145l-2.747,1.967a8.051,8.051,0,0,0-1.628,1.553,6.872,6.872,0,0,1,1.7.161,6.783,6.783,0,0,1,4.279,3l1.527,2.4a6.836,6.836,0,0,1-.052,7.416,8.021,8.021,0,0,0,2.835-.967l2.931-1.658a8.056,8.056,0,0,0,2.951-11.139Zm-3.092,2.286-2.976,1.953a.685.685,0,1,1-.752-1.146l2.976-1.953a.685.685,0,0,1,.752,1.146Z" transform="translate(-281.758 -131.403)" fill="#2d2d2d"/>
  </g>
</svg>
