<svg id="noun-earphone-118361" xmlns="http://www.w3.org/2000/svg" width="37.323" height="59.716" viewBox="0 0 37.323 59.716">
  <g id="Group_16" data-name="Group 16">
    <path id="Path_20" data-name="Path 20" d="M42.1,19.723V39.456H36.5v-19.6A7.72,7.72,0,0,1,30.527,12.4a8.4,8.4,0,0,1,16.8,0A7.523,7.523,0,0,1,42.1,19.723ZM19.7,20.54q-.187.012-.373.012c-2.748,0-6.69-2.7-7.486-3.461s-1.6-1.663-1.6-1.663A1.06,1.06,0,0,1,10,14.8V10.009a1.161,1.161,0,0,1,.263-.645s.892-.974,1.581-1.625C13.88,5.817,16.543,4,19.331,4c3.7,0,7.465,3.76,7.465,8.4A8.356,8.356,0,0,1,25.3,17.175V39.456H19.7Zm.933,18.917h3.732v5.6H20.637Zm.933,5.6h1.866V63.716H21.57ZM11.213,9.225a.762.762,0,0,1,.653.746v4.852a.774.774,0,0,1-.653.746.762.762,0,0,1-.653-.746V9.972A.774.774,0,0,1,11.213,9.225Zm9.815,1.866h2.016a1.306,1.306,0,1,1,0,2.613H21.028a1.306,1.306,0,1,1,0-2.613Zm16.4,28.365h3.732v5.6H37.432Zm.933,5.6h1.866V63.716H38.365ZM39.3,5.866a.388.388,0,0,1,.373.389V8.276a.374.374,0,1,1-.746,0V6.255A.385.385,0,0,1,39.3,5.866Z" transform="translate(-10 -4)" fill="#2d2d2d" fill-rule="evenodd"/>
  </g>
</svg>
