<svg id="headphone-svgrepo-com" xmlns="http://www.w3.org/2000/svg" width="36.849" height="36.653" viewBox="0 0 36.849 36.653">
  <path id="Path_250" data-name="Path 250" d="M3.383,32.63A1.392,1.392,0,0,1,2,31.249v-10.5a18.248,18.248,0,0,1,18.33-18.7A18.534,18.534,0,0,1,38.843,20.564v10.5a1.382,1.382,0,1,1-2.763,0v-10.5A15.767,15.767,0,0,0,20.33,4.814a15.48,15.48,0,0,0-15.565,15.9V31.234a1.384,1.384,0,0,1-1.382,1.4Z" transform="translate(-1.995 -2.051)" fill="#525ceb"/>
  <path id="Path_251" data-name="Path 251" d="M9.258,12.449H9.019A7.028,7.028,0,0,0,2,19.468v3.46a7.028,7.028,0,0,0,7.019,7.019h.239a7.028,7.028,0,0,0,7.019-7.019v-3.46a7.028,7.028,0,0,0-7.019-7.019Z" transform="translate(-1.993 6.707)" fill="#525ceb"/>
  <path id="Path_252" data-name="Path 252" d="M21.508,12.449h-.239a7.028,7.028,0,0,0-7.019,7.019v3.46a7.028,7.028,0,0,0,7.019,7.019h.239a7.028,7.028,0,0,0,7.019-7.019v-3.46a7.028,7.028,0,0,0-7.019-7.019Z" transform="translate(8.323 6.707)" fill="#525ceb"/>
</svg>
