<svg xmlns="http://www.w3.org/2000/svg" width="35.417" height="47.53" viewBox="0 0 35.417 47.53">
  <g id="Group_8" data-name="Group 8" transform="translate(0 0)">
    <g id="Group_7" data-name="Group 7">
      <path id="Path_4" data-name="Path 4" d="M43.875,27.8a6.855,6.855,0,1,0-6.855-6.856A6.856,6.856,0,0,0,43.875,27.8Zm0-10.283a3.427,3.427,0,1,1-3.427,3.427A3.431,3.431,0,0,1,43.875,17.515Z" transform="translate(-26.166 -9.289)" fill="none"/>
      <path id="Path_5" data-name="Path 5" d="M39.893,44.374A11.311,11.311,0,1,0,51.2,55.684,11.311,11.311,0,0,0,39.893,44.374Zm0,15.767a4.456,4.456,0,1,1,4.456-4.456A4.461,4.461,0,0,1,39.893,60.141Z" transform="translate(-22.184 -23.58)" fill="none"/>
      <path id="Path_6" data-name="Path 6" d="M46.019,57.355a4.456,4.456,0,1,0,4.456,4.456A4.461,4.461,0,0,0,46.019,57.355Z" transform="translate(-28.31 -29.706)" fill="#2d2d2d"/>
      <circle id="Ellipse_1" data-name="Ellipse 1" cx="3.427" cy="3.427" r="3.427" transform="translate(14.282 8.227)" fill="#2d2d2d"/>
      <path id="Path_7" data-name="Path 7" d="M48.458,5H19.894a3.427,3.427,0,0,0-3.427,3.427V49.1a3.427,3.427,0,0,0,3.427,3.427H48.457A3.427,3.427,0,0,0,51.884,49.1V8.427A3.427,3.427,0,0,0,48.458,5ZM34.176,9.8a6.855,6.855,0,1,1-6.855,6.855A6.855,6.855,0,0,1,34.176,9.8Zm0,38.617A11.311,11.311,0,1,1,45.486,37.1,11.312,11.312,0,0,1,34.176,48.416Z" transform="translate(-16.467 -5)" fill="#2d2d2d"/>
    </g>
  </g>
</svg>
