<svg id="noun-charger-3837975" xmlns="http://www.w3.org/2000/svg" width="46.877" height="35.267" viewBox="0 0 46.877 35.267">
  <g id="Group_15" data-name="Group 15">
    <path id="Path_9" data-name="Path 9" d="M8.4,6.454A5.8,5.8,0,0,0,4.463,12.4l.459,5.891A3.958,3.958,0,0,0,7.931,21.84l3.215.791V8.338a5.406,5.406,0,0,1,1.085-3.175Z" transform="translate(3.588 -1.469)" fill="#2d2d2d"/>
    <path id="Path_10" data-name="Path 10" d="M5.955,7.367A6.762,6.762,0,0,1,8.381,5.909l1.782-.6-4.6-.536-.149-.018a1.309,1.309,0,0,0-1.26,1.152A1.265,1.265,0,0,0,5.28,7.287Z" transform="translate(3.281 -1.892)" fill="#2d2d2d"/>
    <path id="Path_11" data-name="Path 11" d="M1.773,6.825a1.271,1.271,0,0,0-.157,2.532l5.931.689a6.784,6.784,0,0,1,.526-2.492L1.92,6.843Z" transform="translate(-0.505 0.258)" fill="#2d2d2d"/>
    <path id="Path_12" data-name="Path 12" d="M29.2,5.369l3.815-.889-8.011-1a18.867,18.867,0,0,0-5.313.126l-5.813.942a9.3,9.3,0,0,0-4.83,2.206L25.165,8.112A6.807,6.807,0,0,1,29.2,5.369Z" transform="translate(8.373 -3.351)" fill="#2d2d2d"/>
    <path id="Path_13" data-name="Path 13" d="M25.447,6.866,9.08,5.488A4.407,4.407,0,0,0,8.232,8V30.881a3.483,3.483,0,0,0,3.052,3.452l14.144,1.756a3.253,3.253,0,0,1-.667-1.943V9.817A6.854,6.854,0,0,1,25.447,6.866Z" transform="translate(7.522 -1.131)" fill="#2d2d2d"/>
    <path id="Path_14" data-name="Path 14" d="M29.477,4.641a2.444,2.444,0,0,0-1.529-.536,2.507,2.507,0,0,0-.563.063L21.344,5.575a5.8,5.8,0,0,0-4.5,5.676V35.58a2.225,2.225,0,0,0,1.945,2.229l.022,0s0,0,0,0a2.253,2.253,0,0,0,1.27-.188l6.514-3.1a6.721,6.721,0,0,0,3.815-6.039V6.568A2.457,2.457,0,0,0,29.477,4.641Z" transform="translate(16.466 -2.568)" fill="#2d2d2d"/>
  </g>
</svg>
